# xmcd
# Copyright (C) 1995-1998 Ti Kan
#
# Track frame offsets:
#       150
#       130487
#       176425
#
# Disc length: 3308 seconds
#
# Revision: 0
# Processed by: cddbd v1.5.2PL0 Copyright (c) Steve Scherf et al.
# Submitted via: CD-Transfer v1.0
#
DISCID=220cea03
DTITLE=Lindstrom - Lindstrom
DYEAR=08
DGENRE=
TTITLE0=Where You, I Go Too
TTITLE1=Grand Ideas
TTITLE2=Long Way Home
EXTD=
EXTT0=
EXTT1=
EXTT2=
PLAYORDER=
